<svg id="Layer_1" data-name="Layer 1" xmlns="http://www.w3.org/2000/svg" viewBox="0 0 44 847"><defs><style>.cls-1{fill:#5c5c5c;}.cls-2{fill:none;stroke:#5c5c5c;stroke-miterlimit:10;stroke-width:2px;}</style></defs><title>cv1</title><circle class="cls-1" cx="19.5" cy="17.5" r="13.5"/><circle class="cls-1" cx="20.5" cy="179.5" r="13.5"/><line class="cls-2" x1="20" y1="34" x2="20" y2="41"/><line class="cls-2" x1="20" y1="43" x2="20" y2="50"/><line class="cls-2" x1="20" y1="52" x2="20" y2="59"/><line class="cls-2" x1="20" y1="62" x2="20" y2="69"/><line class="cls-2" x1="20" y1="72" x2="20" y2="79"/><line class="cls-2" x1="20" y1="81" x2="20" y2="88"/><line class="cls-2" x1="20" y1="90" x2="20" y2="97"/><line class="cls-2" x1="20" y1="100" x2="20" y2="107"/><line class="cls-2" x1="20" y1="110" x2="20" y2="117"/><line class="cls-2" x1="20" y1="120" x2="20" y2="127"/><line class="cls-2" x1="20" y1="129" x2="20" y2="136"/><line class="cls-2" x1="20" y1="138" x2="20" y2="145"/><line class="cls-2" x1="20" y1="149" x2="20" y2="156"/><line class="cls-2" x1="20" y1="158" x2="20" y2="165"/><circle class="cls-1" cx="19.5" cy="180.5" r="13.5"/><circle class="cls-1" cx="20.5" cy="342.5" r="13.5"/><line class="cls-2" x1="20" y1="197" x2="20" y2="204"/><line class="cls-2" x1="20" y1="206" x2="20" y2="213"/><line class="cls-2" x1="20" y1="215" x2="20" y2="222"/><line class="cls-2" x1="20" y1="225" x2="20" y2="232"/><line class="cls-2" x1="20" y1="235" x2="20" y2="242"/><line class="cls-2" x1="20" y1="244" x2="20" y2="251"/><line class="cls-2" x1="20" y1="253" x2="20" y2="260"/><line class="cls-2" x1="20" y1="263" x2="20" y2="270"/><line class="cls-2" x1="20" y1="273" x2="20" y2="280"/><line class="cls-2" x1="20" y1="283" x2="20" y2="290"/><line class="cls-2" x1="20" y1="292" x2="20" y2="299"/><line class="cls-2" x1="20" y1="301" x2="20" y2="308"/><line class="cls-2" x1="20" y1="312" x2="20" y2="319"/><line class="cls-2" x1="20" y1="321" x2="20" y2="328"/><circle class="cls-1" cx="18.5" cy="342.5" r="13.5"/><circle class="cls-1" cx="19.5" cy="504.5" r="13.5"/><line class="cls-2" x1="19" y1="359" x2="19" y2="366"/><line class="cls-2" x1="19" y1="368" x2="19" y2="375"/><line class="cls-2" x1="19" y1="377" x2="19" y2="384"/><line class="cls-2" x1="19" y1="387" x2="19" y2="394"/><line class="cls-2" x1="19" y1="397" x2="19" y2="404"/><line class="cls-2" x1="19" y1="406" x2="19" y2="413"/><line class="cls-2" x1="19" y1="415" x2="19" y2="422"/><line class="cls-2" x1="19" y1="425" x2="19" y2="432"/><line class="cls-2" x1="19" y1="435" x2="19" y2="442"/><line class="cls-2" x1="19" y1="445" x2="19" y2="452"/><line class="cls-2" x1="19" y1="454" x2="19" y2="461"/><line class="cls-2" x1="19" y1="463" x2="19" y2="470"/><line class="cls-2" x1="19" y1="474" x2="19" y2="481"/><line class="cls-2" x1="19" y1="483" x2="19" y2="490"/><circle class="cls-1" cx="19.5" cy="505.5" r="13.5"/><circle class="cls-1" cx="20.5" cy="667.5" r="13.5"/><line class="cls-2" x1="20" y1="522" x2="20" y2="529"/><line class="cls-2" x1="20" y1="531" x2="20" y2="538"/><line class="cls-2" x1="20" y1="540" x2="20" y2="547"/><line class="cls-2" x1="20" y1="550" x2="20" y2="557"/><line class="cls-2" x1="20" y1="560" x2="20" y2="567"/><line class="cls-2" x1="20" y1="569" x2="20" y2="576"/><line class="cls-2" x1="20" y1="578" x2="20" y2="585"/><line class="cls-2" x1="20" y1="588" x2="20" y2="595"/><line class="cls-2" x1="20" y1="598" x2="20" y2="605"/><line class="cls-2" x1="20" y1="608" x2="20" y2="615"/><line class="cls-2" x1="20" y1="617" x2="20" y2="624"/><line class="cls-2" x1="20" y1="626" x2="20" y2="633"/><line class="cls-2" x1="20" y1="637" x2="20" y2="644"/><line class="cls-2" x1="20" y1="646" x2="20" y2="653"/><circle class="cls-1" cx="19.5" cy="668.5" r="13.5"/><circle class="cls-1" cx="20.5" cy="830.5" r="13.5"/><line class="cls-2" x1="20" y1="685" x2="20" y2="692"/><line class="cls-2" x1="20" y1="694" x2="20" y2="701"/><line class="cls-2" x1="20" y1="703" x2="20" y2="710"/><line class="cls-2" x1="20" y1="713" x2="20" y2="720"/><line class="cls-2" x1="20" y1="723" x2="20" y2="730"/><line class="cls-2" x1="20" y1="732" x2="20" y2="739"/><line class="cls-2" x1="20" y1="741" x2="20" y2="748"/><line class="cls-2" x1="20" y1="751" x2="20" y2="758"/><line class="cls-2" x1="20" y1="761" x2="20" y2="768"/><line class="cls-2" x1="20" y1="771" x2="20" y2="778"/><line class="cls-2" x1="20" y1="780" x2="20" y2="787"/><line class="cls-2" x1="20" y1="789" x2="20" y2="796"/><line class="cls-2" x1="20" y1="800" x2="20" y2="807"/><line class="cls-2" x1="20" y1="809" x2="20" y2="816"/></svg>
