<svg id="Layer_1" data-name="Layer 1" xmlns="http://www.w3.org/2000/svg" viewBox="0 0 55 617"><defs><style>.cls-1{fill:#5c5c5c;}.cls-2{fill:none;stroke:#5c5c5c;stroke-miterlimit:10;stroke-width:2px;}</style></defs><title>cv2</title><circle class="cls-1" cx="27.5" cy="17.5" r="13.5"/><circle class="cls-1" cx="27.5" cy="132.5" r="13.5"/><line class="cls-2" x1="28" y1="34" x2="28" y2="41"/><line class="cls-2" x1="28" y1="43" x2="28" y2="50"/><line class="cls-2" x1="28" y1="52" x2="28" y2="59"/><line class="cls-2" x1="28" y1="62" x2="28" y2="69"/><line class="cls-2" x1="28" y1="72" x2="28" y2="79"/><line class="cls-2" x1="28" y1="81" x2="28" y2="88"/><line class="cls-2" x1="28" y1="90" x2="28" y2="97"/><line class="cls-2" x1="28" y1="100" x2="28" y2="107"/><line class="cls-2" x1="28" y1="110" x2="28" y2="117"/><circle class="cls-1" cx="27.5" cy="132.5" r="13.5"/><circle class="cls-1" cx="27.5" cy="247.5" r="13.5"/><line class="cls-2" x1="28" y1="149" x2="28" y2="156"/><line class="cls-2" x1="28" y1="158" x2="28" y2="165"/><line class="cls-2" x1="28" y1="167" x2="28" y2="174"/><line class="cls-2" x1="28" y1="177" x2="28" y2="184"/><line class="cls-2" x1="28" y1="187" x2="28" y2="194"/><line class="cls-2" x1="28" y1="196" x2="28" y2="203"/><line class="cls-2" x1="28" y1="205" x2="28" y2="212"/><line class="cls-2" x1="28" y1="215" x2="28" y2="222"/><line class="cls-2" x1="28" y1="225" x2="28" y2="232"/><circle class="cls-1" cx="27.5" cy="247.5" r="13.5"/><circle class="cls-1" cx="27.5" cy="362.5" r="13.5"/><line class="cls-2" x1="28" y1="264" x2="28" y2="271"/><line class="cls-2" x1="28" y1="273" x2="28" y2="280"/><line class="cls-2" x1="28" y1="282" x2="28" y2="289"/><line class="cls-2" x1="28" y1="292" x2="28" y2="299"/><line class="cls-2" x1="28" y1="302" x2="28" y2="309"/><line class="cls-2" x1="28" y1="311" x2="28" y2="318"/><line class="cls-2" x1="28" y1="320" x2="28" y2="327"/><line class="cls-2" x1="28" y1="330" x2="28" y2="337"/><line class="cls-2" x1="28" y1="340" x2="28" y2="347"/><circle class="cls-1" cx="27.5" cy="361.5" r="13.5"/><circle class="cls-1" cx="27.5" cy="476.5" r="13.5"/><line class="cls-2" x1="28" y1="378" x2="28" y2="385"/><line class="cls-2" x1="28" y1="387" x2="28" y2="394"/><line class="cls-2" x1="28" y1="396" x2="28" y2="403"/><line class="cls-2" x1="28" y1="406" x2="28" y2="413"/><line class="cls-2" x1="28" y1="416" x2="28" y2="423"/><line class="cls-2" x1="28" y1="425" x2="28" y2="432"/><line class="cls-2" x1="28" y1="434" x2="28" y2="441"/><line class="cls-2" x1="28" y1="444" x2="28" y2="451"/><line class="cls-2" x1="28" y1="454" x2="28" y2="461"/><circle class="cls-1" cx="27.5" cy="477.5" r="13.5"/><circle class="cls-1" cx="27.5" cy="592.5" r="13.5"/><line class="cls-2" x1="28" y1="494" x2="28" y2="501"/><line class="cls-2" x1="28" y1="503" x2="28" y2="510"/><line class="cls-2" x1="28" y1="512" x2="28" y2="519"/><line class="cls-2" x1="28" y1="522" x2="28" y2="529"/><line class="cls-2" x1="28" y1="532" x2="28" y2="539"/><line class="cls-2" x1="28" y1="541" x2="28" y2="548"/><line class="cls-2" x1="28" y1="550" x2="28" y2="557"/><line class="cls-2" x1="28" y1="560" x2="28" y2="567"/><line class="cls-2" x1="28" y1="570" x2="28" y2="577"/></svg>
