<svg id="Layer_1" data-name="Layer 1" xmlns="http://www.w3.org/2000/svg" viewBox="0 0 52 686"><defs><style>.cls-1{fill:#5c5c5c;}.cls-2{fill:none;stroke:#5c5c5c;stroke-miterlimit:10;stroke-width:2px;}</style></defs><title>cv3</title><circle class="cls-1" cx="30.5" cy="14.5" r="13.5"/><circle class="cls-1" cx="30.5" cy="140.5" r="13.5"/><line class="cls-2" x1="31" y1="31" x2="31" y2="38"/><line class="cls-2" x1="31" y1="40" x2="31" y2="47"/><line class="cls-2" x1="31" y1="49" x2="31" y2="56"/><line class="cls-2" x1="31" y1="59" x2="31" y2="66"/><line class="cls-2" x1="31" y1="69" x2="31" y2="76"/><line class="cls-2" x1="31" y1="78" x2="31" y2="85"/><line class="cls-2" x1="31" y1="87" x2="31" y2="94"/><line class="cls-2" x1="31" y1="97" x2="31" y2="104"/><line class="cls-2" x1="31" y1="107" x2="31" y2="114"/><line class="cls-2" x1="31" y1="117" x2="31" y2="124"/><circle class="cls-1" cx="30.5" cy="140.5" r="13.5"/><circle class="cls-1" cx="30.5" cy="266.5" r="13.5"/><line class="cls-2" x1="31" y1="157" x2="31" y2="164"/><line class="cls-2" x1="31" y1="166" x2="31" y2="173"/><line class="cls-2" x1="31" y1="175" x2="31" y2="182"/><line class="cls-2" x1="31" y1="185" x2="31" y2="192"/><line class="cls-2" x1="31" y1="195" x2="31" y2="202"/><line class="cls-2" x1="31" y1="204" x2="31" y2="211"/><line class="cls-2" x1="31" y1="213" x2="31" y2="220"/><line class="cls-2" x1="31" y1="223" x2="31" y2="230"/><line class="cls-2" x1="31" y1="233" x2="31" y2="240"/><line class="cls-2" x1="31" y1="243" x2="31" y2="250"/><circle class="cls-1" cx="30.5" cy="266.5" r="13.5"/><circle class="cls-1" cx="30.5" cy="392.5" r="13.5"/><line class="cls-2" x1="31" y1="283" x2="31" y2="290"/><line class="cls-2" x1="31" y1="292" x2="31" y2="299"/><line class="cls-2" x1="31" y1="301" x2="31" y2="308"/><line class="cls-2" x1="31" y1="311" x2="31" y2="318"/><line class="cls-2" x1="31" y1="321" x2="31" y2="328"/><line class="cls-2" x1="31" y1="330" x2="31" y2="337"/><line class="cls-2" x1="31" y1="339" x2="31" y2="346"/><line class="cls-2" x1="31" y1="349" x2="31" y2="356"/><line class="cls-2" x1="31" y1="359" x2="31" y2="366"/><line class="cls-2" x1="31" y1="369" x2="31" y2="376"/><circle class="cls-1" cx="30.5" cy="392.5" r="13.5"/><circle class="cls-1" cx="30.5" cy="518.5" r="13.5"/><line class="cls-2" x1="31" y1="409" x2="31" y2="416"/><line class="cls-2" x1="31" y1="418" x2="31" y2="425"/><line class="cls-2" x1="31" y1="427" x2="31" y2="434"/><line class="cls-2" x1="31" y1="437" x2="31" y2="444"/><line class="cls-2" x1="31" y1="447" x2="31" y2="454"/><line class="cls-2" x1="31" y1="456" x2="31" y2="463"/><line class="cls-2" x1="31" y1="465" x2="31" y2="472"/><line class="cls-2" x1="31" y1="475" x2="31" y2="482"/><line class="cls-2" x1="31" y1="485" x2="31" y2="492"/><line class="cls-2" x1="31" y1="495" x2="31" y2="502"/><circle class="cls-1" cx="30.5" cy="518.5" r="13.5"/><circle class="cls-1" cx="30.5" cy="644.5" r="13.5"/><line class="cls-2" x1="31" y1="535" x2="31" y2="542"/><line class="cls-2" x1="31" y1="544" x2="31" y2="551"/><line class="cls-2" x1="31" y1="553" x2="31" y2="560"/><line class="cls-2" x1="31" y1="563" x2="31" y2="570"/><line class="cls-2" x1="31" y1="573" x2="31" y2="580"/><line class="cls-2" x1="31" y1="582" x2="31" y2="589"/><line class="cls-2" x1="31" y1="591" x2="31" y2="598"/><line class="cls-2" x1="31" y1="601" x2="31" y2="608"/><line class="cls-2" x1="31" y1="611" x2="31" y2="618"/><line class="cls-2" x1="31" y1="621" x2="31" y2="628"/></svg>
