<svg id="Layer_1" data-name="Layer 1" xmlns="http://www.w3.org/2000/svg" viewBox="0 0 250 206"><defs><style>.cls-1{fill:#5c5c5c;}</style></defs><title>erhverv</title><path class="cls-1" d="M86.79,45.61V28.75s3-9,8.43-7.82h68s7.82,1.2,7.22,7.22V48H157.84l-.3-13.55h-56l-.6,13.85H87.09Z"/><path class="cls-1" d="M46.76,48.32h168S227.38,51.93,228,62.77v43.95L31.1,107.93V62.77A19.44,19.44,0,0,1,46.76,48.32Z"/><rect class="cls-1" x="114.79" y="118.16" width="28.9" height="14.45"/><path class="cls-1" d="M30.5,118.16h74.05v17.46s0,4.82,4.22,6H147.9s4.82-.6,5.42-4.82V118.16H228l-.6,56s-.61,11.44-13.25,13.85H45.55s-9,0-15-14.45Z"/></svg>
