<svg xmlns="http://www.w3.org/2000/svg" viewBox="0 0 541 405"><defs><style>.cls-1{fill:#e6e6e6;}.cls-2{fill:gray;}.cls-3{fill:#b3b3b3;}.cls-4{fill:#999;}.cls-5{fill:#ccc;}.cls-13,.cls-6{fill:#666;}.cls-10,.cls-7{fill:#5c5c5c;}.cls-11,.cls-8,.cls-9{fill:none;}.cls-10,.cls-8,.cls-9{stroke:#5c5c5c;}.cls-10,.cls-11,.cls-13,.cls-8,.cls-9{stroke-miterlimit:10;}.cls-8{stroke-width:8px;}.cls-10,.cls-9{stroke-width:5px;}.cls-11,.cls-13{stroke:#666;}.cls-11{stroke-width:10px;}.cls-12{fill:#fff;}</style></defs><title>ikoner</title><g id="Layer_7" data-name="Layer 7"><ellipse class="cls-1" cx="401.11" cy="126.75" rx="66.61" ry="62.75"/><ellipse class="cls-2" cx="114" cy="248.89" rx="45" ry="43.89"/><path class="cls-3" d="M86.7,255.9s-17-4.42-10.32-19.18c0,0,1.47-9.59,13.28-5.16,0,0,12.54-22.13,33.93-14.76,0,0,24.34,5.9,16.23,35.41,0,0,11.07,6.64,5.16,17.71,0,0-4.42,11.8-20.65,3.69l10-23.24s5.9-17.71-7.38-24.35c0,0-9.59-11.06-25.82,1.48C101.09,227.5,95.93,233.4,86.7,255.9Z"/><ellipse class="cls-4" cx="96.5" cy="91.5" rx="65" ry="63"/><polygon class="cls-5" points="49.5 67.5 134.5 58.5 140.5 109.5 56.5 119.5 49.5 67.5"/><polygon class="cls-4" points="60.5 74.5 126.5 66.5 132.5 103.5 63.5 112.5 60.5 74.5"/><polygon class="cls-5" points="84.5 119.5 113.5 115.5 114.5 125.5 84.5 129.5 84.5 119.5"/><polygon class="cls-5" points="79.5 133.5 119.5 127.5 119.5 133.5 80.5 137.5 79.5 133.5"/><ellipse class="cls-1" cx="226.5" cy="154.5" rx="69" ry="65"/><path class="cls-6" d="M228.5,112.5c1-1,32,15,32,15l-10,21-33-16Z"/><polygon class="cls-5" points="222 130 229 117 255 129 248 143 222 130"/><polygon class="cls-2" points="229.5 139.5 227.5 144.5 233.5 147.5 236.66 141.79 229.65 138.39 229.5 139.5"/><polygon class="cls-6" points="265.5 163.5 209.5 136.5 210.5 133.5 202.5 129.5 201.5 132.5 195.5 129.5 174.5 171.5 243.5 206.5 265.5 163.5"/><polygon class="cls-5" points="249.5 162.5 248.5 165.5 255.5 168.5 256.5 165.5 249.5 162.5"/><circle class="cls-5" cx="220" cy="168" r="14.5"/><path class="cls-7" d="M382,96.06v-8s1.42-4.26,4-3.69h32.14s3.7.57,3.41,3.41V97.2h-6l-.14-6.4H389l-.29,6.54h-6.54Z"/><path class="cls-7" d="M363.1,97.34h79.35s6,1.7,6.25,6.82v20.77l-93,.57V104.16A9.19,9.19,0,0,1,363.1,97.34Z"/><rect class="cls-7" x="395.23" y="130.33" width="13.65" height="6.83"/><path class="cls-7" d="M355.42,130.33h35v8.25a3,3,0,0,0,2,2.84h18.49s2.27-.28,2.56-2.27v-8.82H448.7l-.28,26.45a7.33,7.33,0,0,1-6.26,6.54H362.53s-4.27,0-7.11-6.82Z"/><circle class="cls-5" cx="467.5" cy="216.5" r="44.5"/><ellipse class="cls-8" cx="467.39" cy="217.09" rx="28.73" ry="27.79"/><ellipse class="cls-9" cx="467.39" cy="217.72" rx="13.03" ry="27.32"/><path class="cls-9" d="M446,198.1s19.46,16.17,42.7,0"/><path class="cls-9" d="M446,235.62s21.82-15.07,42.7.94"/><line class="cls-9" x1="467.39" y1="189.46" x2="467.39" y2="245.04"/><circle class="cls-7" cx="479.87" cy="210.11" r="3.22"/><circle class="cls-7" cx="461.66" cy="229.26" r="3.22"/><circle class="cls-7" cx="456.32" cy="203.51" r="3.22"/><line class="cls-10" x1="438.66" y1="216.04" x2="495.49" y2="216.04"/><circle class="cls-1" cx="334" cy="267" r="38.5"/><rect class="cls-4" x="308.5" y="253.5" width="34" height="33"/><rect class="cls-5" x="313.5" y="260.5" width="24" height="19"/><polygon class="cls-4" points="318.5 246.5 349.5 239.5 355.5 271.5 342.5 273.5 342.5 267.5 350.5 265.5 347.5 244.5 323.5 248.5 323.5 253.5 318.5 253.5 318.5 246.5"/><circle class="cls-2" cx="440" cy="324" r="55"/><polygon class="cls-5" points="431 307 403 319 403 328 434 341 434 331 415 324 434 319 434 307 431 307"/><polygon class="cls-5" points="454 317 454 307 485 320 485 328 454 341 454 333 469 326 454 317"/><polygon class="cls-5" points="446 304 437 345 441 345 451 304 446 304"/><rect class="cls-11" x="195" y="269" width="70" height="70"/><polygon class="cls-6" points="201.41 327.46 214.37 285.05 228.51 285.05 241.47 327.46 229.98 327.46 227.33 316.27 214.37 316.27 211.13 327.46 201.41 327.46"/><polygon class="cls-12" points="215.25 309.2 225.86 309.2 220.56 292.12 215.25 309.2"/><rect class="cls-6" x="246.18" y="296.83" width="9.42" height="30.63"/><circle class="cls-13" cx="251.04" cy="286.97" r="6.48"/></g></svg>
