<svg xmlns="http://www.w3.org/2000/svg" viewBox="0 0 512 282"><defs><style>.cls-1{fill:#b3b3b3;}</style></defs><title>monster</title><g id="Layer_7" data-name="Layer 7"><polygon class="cls-1" points="23 191 138 139 149 262 23 191"/><polygon class="cls-1" points="158 268 288 164 173 121 149 133 158 268"/><polygon class="cls-1" points="296 161 408 203 338 128 296 161"/><polygon class="cls-1" points="181 119 288 157 333 125 283 71 181 119"/><polygon class="cls-1" points="143 107 172 116 278 67 232 16 222 16 136 35 143 107"/><polygon class="cls-1" points="17 63 129 37 134 104 17 63"/><polygon class="cls-1" points="239 16 284 66 346 37 239 16"/><polygon class="cls-1" points="343 126 412 200 499 71 433 57 343 126"/></g></svg>
