<svg id="Layer_1" data-name="Layer 1" xmlns="http://www.w3.org/2000/svg" viewBox="0 0 130 32"><defs><style>.cls-1{fill:#797979;}</style></defs><title>streg</title><path class="cls-1" d="M125,6c.06-.09,0-.28-.15-.25l-.13.33Z"/><path class="cls-1" d="M123.81,5.37c-.21.15-.46.43-.33.74.21-.32.26-.18.49-.56.18,0,.31.11.27.23.07-.08.28.08.38-.13a.58.58,0,0,0-.83-.06C123.73,5.51,123.79,5.43,123.81,5.37Z"/><path class="cls-1" d="M106.5,4.67l.11,0Z"/><path class="cls-1" d="M95.76,4.57c.08,0,.12-.05.12-.08S95.74,4.54,95.76,4.57Z"/><path class="cls-1" d="M93.92,4.23l.11,0S94,4.2,93.92,4.23Z"/><path class="cls-1" d="M106.5,4.67l-.29-.1C106.19,4.68,106.36,4.65,106.5,4.67Z"/><path class="cls-1" d="M121.41,6.13a.51.51,0,0,0,.16-.09l-.15,0Z"/><path class="cls-1" d="M111.23,4.42h.09a.54.54,0,0,0,.07-.13Z"/><path class="cls-1" d="M114.86,4.41c-.08,0-.11.26-.14.39a.28.28,0,0,1,.18-.19A.54.54,0,0,0,114.86,4.41Z"/><path class="cls-1" d="M120.61,5l.11,0Z"/><path class="cls-1" d="M108.63,4.34a.29.29,0,0,0,0-.1A.17.17,0,0,0,108.63,4.34Z"/><path class="cls-1" d="M10.49,24.31s0,0,0,0S10.47,24.32,10.49,24.31Z"/><path class="cls-1" d="M6.13,25.1l0-.05-.07-.14Z"/><path class="cls-1" d="M90.55,4h0C90.65,3.94,90.6,4,90.55,4Z"/><path class="cls-1" d="M59.78,6.59c.38.2-.52.39,0,.6C59.75,7.09,60.23,6.69,59.78,6.59Z"/><path class="cls-1" d="M121.31,6.09h0Z"/><path class="cls-1" d="M59.82,7.19h0l.06,0Z"/><path class="cls-1" d="M82.82,4.45s.05.08.08.12S82.88,4.5,82.82,4.45Z"/><path class="cls-1" d="M88.6,4.6l-.15,0A.34.34,0,0,0,88.6,4.6Z"/><path class="cls-1" d="M79.85,5c-.08,0-.11-.06-.21,0l0,0A.14.14,0,0,1,79.85,5Z"/><path class="cls-1" d="M76.74,5.21s0,0,.06,0l.1,0Z"/><path class="cls-1" d="M18.82,20.06a1.13,1.13,0,0,1-.24-.17C18.71,20.05,18.33,20.31,18.82,20.06Z"/><path class="cls-1" d="M121.41,6c0,.07,0,.11-.1.12h.11S121.43,6,121.41,6Z"/><path class="cls-1" d="M79.85,7.22l-.49,0A3.78,3.78,0,0,0,79.85,7.22Z"/><path class="cls-1" d="M39.69,12.84l-.1.06A.11.11,0,0,0,39.69,12.84Z"/><path class="cls-1" d="M77.91,7.34a.73.73,0,0,0-.29-.17l-.06.07Z"/><path class="cls-1" d="M18.58,19.88h0Z"/><path class="cls-1" d="M15.94,21.85c.43-.19,0-.42,0-.65.46-.33.35.13.6.22.28-.23.38-.65.62-.75,0,0,.1,0,.07.14.21-.42,1-.47,1.22-1a.23.23,0,0,1,.09.06,1.05,1.05,0,0,1-.26-.43c.18-.1.26-.38.43-.19-.12,0-.09.14-.12.23l.16-.18c.32.23-.23.23-.12.47.34-.29.68-.76,1-.81.19.28-.65.43-.14.52l-.51.1c.57.32-.29.09.26.47.65-.18.6-.5,1.26-.64.06-.23-.16-.24-.09-.47.75-.66,1,.52,1.49-.15.08-.28,0-.7.53-.67v.41c.62-.2.14-.64.86-.65-.05.18-.42.3-.31.31.52.12.2-.32.52-.44l.19.29c.62-.3,1.24-.81,1.92-1.14,0,.11-.08.25.12.29a4.72,4.72,0,0,1,1.39-.56,13.76,13.76,0,0,1,1.49-.22L28.9,16c.08,0,.19.07.12.15.38,0,0-.18.08-.34s.32.07.22.2a3.77,3.77,0,0,1,2.29-1l-.09.12c.53,0,.38-.75.92-.64l-.07.07A13.67,13.67,0,0,0,34,14.1,3.37,3.37,0,0,1,35.57,14c0-.45,1.14-.12,1-.7a3.9,3.9,0,0,0,1.48.21c.25,0,.26-.45.53-.59l.09.29.31-.42.31.3.25-.15c-.11,0-.27-.07-.27-.16a1.08,1.08,0,0,1,1.14.07l.94-.52c0,.12-.15.21-.26.32.46-.45.17.29.6-.11-.08-.05,0-.18,0-.25A2,2,0,0,0,43,12.09l0,.22c.77-.12,1.57-.45,2.42-.64a.25.25,0,0,1-.09-.49l.17.29c.11-.23-.29-.06,0-.37.32,0,.29.31.13.45l.36-.19c0,.09,0,.16,0,.28.11-.23.73.18.89-.22l0,.09c.85-.18,1.21-.38,1.9-.55-.05-.28.24-.27.4-.53a7.44,7.44,0,0,0,1.76,0c.41-.21.08-.25.25-.45.08.24.69.11.4.35a9.67,9.67,0,0,0,1.85-.59c-.12-.09-.25-.11-.2-.21s.4,0,.4.16l0,0c1-.56,2.55.27,3.31-.35l0,0L57.66,9c.41,0-.21.22.11.33.88-.55,1.5-.14,2.24-.53.7.66,2.13-.35,3,0L63,8.64c.18-.2.26.07.42.09,0-.14-.25-.13-.13-.25C65,8.06,67,8.35,68.81,8.31c.67,0,.29-1,1.17-.63l-.2.36c1.31-.56,2.77-.24,4.07-.68-.08.09-.07.18-.2.19.3.22,1-.06,1-.26.21,0,.06.17.19.26.3.12.69-.36.85-.13,0,0-.07.08-.12.11.18-.13.86,0,.66-.3.51.09.95-.2,1.36-.06.24-.33.86.08.91-.36,0,.44.9.31,1.21.08-.1.14.28.13.17.32.36,0,.68-.12.61-.35.69.5,1.31-.5,1.72.17a27.42,27.42,0,0,1,3-.67c0,.45-1.06.1-1,.57a6.65,6.65,0,0,1,2.33-.58c.24.05-.12.2-.2.28.91-.22,1.77,0,2.58-.28,0,0-.09.09-.17.12.16,0,.37.06.35-.14L89,6.39c-.26-.29.62-.64.64-.8-.25.59.81.12.41.88.1,0,.23-.15.2-.28.16,0,.21.11.06.27.57-.13.36-.34.88-.35,0,.1-.1.14-.16.26A1.16,1.16,0,0,1,92,6c0,.06,0,.13-.11.14.76-.06,1.28-.56,2.11-.4-.23.44.29.14.34.51l.45-.12L94.57,6c.39,0,.73-.28,1.07-.16L95.36,6l.73-.08-.42-.14c.39-.2,0-.47.47-.38-.1,0,.39,0,.6.22h0a.76.76,0,0,1,.68-.16c.08.12,0,.42,0,.5.18-.32.91-.1,1.15-.44a.4.4,0,0,0-.06.32l.16-.26c.18.08.21.12.18.27.55,0-.18-.47.47-.27,0,0,0,.06-.13.1.65.1,1.26-.18,1.86-.06.18.37-.53.1-.32.41a14.17,14.17,0,0,1,2.61-.38l-.15,0c.11-.53.62.27,1,0-.1,0-.13.29-.11.23a6.58,6.58,0,0,0,2-.3l-.11.14a8.26,8.26,0,0,0,1.25.13c.11-.13.31-.11.19-.31,1.12.78,2.14-.42,3.13.24-.12,0-.28.12-.19.12l.85-.12c-.07-.23-.11-.14-.29-.32a.77.77,0,0,1,.56-.24c-.38.15,0,.37.16.5,0-.07,0-.14,0-.22.44.42.08-.46.68-.18l0,.12a1.76,1.76,0,0,1,.68-.18c.1.27-.24.12-.26.34.34,0,.68-.5,1-.23-.15.08-.36.08-.51.15a.78.78,0,0,0,.63.29h0l.58.15-.14-.09c.43-.69.87-.12,1.45-.57-.56.43-.09.25-.14.56.15.08.37.18.31.26.27-.24.45.2.84-.15,0,.09.29,0,.22.25.36-.07-.08-.17,0-.29.56-.33,1.28.42,2.08,0,.68-.18.81-.51,1.44-.66.21.16-.18.35-.18.35a1.16,1.16,0,0,0,.93,0c-.07.08,0,.16.09.27.26,0,.18-.35.52-.2a1.43,1.43,0,0,1-.26.38c.3-.08.61-.26.92-.34.09.17-.19.25-.3.36.35-.07.92-.14,1-.4l-.22-.1c.13,0,.06.23,0,.28-.3.2-.43-.1-.45-.2l.23-.06c-.23-.58-.91.08-1.36,0l.19-.42-.47.34c-.09-.11-.16-.34.07-.4-.33-.21-.29.14-.57-.09,0,0,0-.06,0-.07l-.32.12c.07-.09-.05-.3.15-.24-.57-.25-.92.3-1.14,0l0,0c-.79.13-.08.3-.68.65l-.39-.76L118.2,5c-.08,0-.24,0-.21-.16-.3.2.05.13-.13.32-.39-.28-1.08.12-1.16-.37-.15.23.37.19,0,.34-.12-.52-.49.09-.84-.16.11-.26.45-.12.09-.36-.22.45-.7-.11-1,0,0,.36-.66.14-1.17.26,0-.13-1-.21-1.43-.35l0-.06c-.1.37-.58.29-.94.36a.42.42,0,0,1,.27-.4h-.33a.52.52,0,0,1-.4.22l.08-.27c-.44,0-.89.31-1.46.12,0,.26.45.72-.16.89,0-.14,0-.38.12-.44,0,0-.19.12-.29.06l.24-.23c-.26-.11-.14.19-.34.17,0-.2-.16-.14-.13-.3s.18.08.26,0a1,1,0,0,1-.61-.31c0,.12,0,.27-.17.3-.44,0-.15-.24-.41-.34-.11.13-.39,0-.4.29-.13,0-.15-.14-.2-.22-.23.13-1.08,0-.82.35l.06,0h0c-.75.29-1.56-.17-2.31,0v-.1a4.79,4.79,0,0,0-1.31.28c-.13,0-.32-.18-.26-.3a1,1,0,0,1-.87,0c.34-.17-.12-.15.35-.12-.44-.09-.55-.24-1,0,.16-.25-.34-.31-.55-.23l.31.17a2.36,2.36,0,0,1-.65,0l.11-.33c-.91-.39-1.63.71-2.33,0-.24.24.5.16.28.43-.41,0-.86-.51-1-.51-.57-.17-.52.5-1.12.38.07.12.15.43-.29.55-.42,0-.53-.49-.26-.59.1,0,.14,0,.14.06s.31-.09.14-.22l0,.12c-.21-.12-.78-.1-.65-.3-.32.12-.13.2.1.26A10.7,10.7,0,0,0,94,4.25c.09.06.17.2.09.2-.82-.12-.36.24-.9.3-.32-.17.1-.43-.45-.26-.34-.11-.08-.32,0-.42-.5.25-.94-.12-1.23-.15l.26-.1a1.09,1.09,0,0,1-.42.06l.16.23c-.16,0-.29,0-.29-.13-.15.16.13.39-.18.62-.21-.12-.63.14-.71-.17.66.09-.08-.31.47-.38a.71.71,0,0,1-.39,0s0-.07.06-.09c-.63-.26-.27.37-.92.38.07-.18-.16-.33-.27-.29.26,0,.14.29-.1.43-.42-.12-.45.12-.66.11l.25.06c-.08.18-.29.16-.58.22,0-.13.26-.1.16-.16-.31.32-.74-.3-1.18-.08-.21-.11,0-.33-.22-.4-.49.24-.55-.23-1.07,0,.16.24.18.18-.18.43l.86-.21-.54.37c.26,0,.55-.17.7-.14-.25.2-.23.14-.09.34-.38-.35-.71.24-1.13,0V4.44c-.64-.23-1.09.36-1.91.25l.27.09c-.1.24-.5.06-.76.16,0-.19-.15-.26-.27-.37,0,.14-.59,0-.64.41l-.38-.24c-.66-.07-.71.6-1.34.56.18-.22-.12-.35.29-.52-.21,0-.4,0-.39.12-.13-.12-.57.29-.77.12-.08.09-.1.29-.34.29a.16.16,0,0,1,0-.1c0,.1-.36.15-.14.36-.68-.59-1.8.18-2.39-.31-.45.1-1,.2-1.41.25,0-.06,0-.1.07-.08-.58-.14-.31.59-1,.43-.36-.29.33-.2.11-.3-.14-.64-.77.15-1.24-.2l.1,0c-.35-.2-.79.3-1.34.3a.12.12,0,0,0,0-.1,3.81,3.81,0,0,1-1.56.67c.14-.27.23-.16.11-.41-.24.06.1.41-.36.53-.16-.12-.51-.21-.58-.48l.44-.06c-.26-.33-.58.07-.81,0V5.65c-.67.12-.64.51-1.38.56l.09.11c-.36.43-.35-.18-.72.15l-.16-.38a9.82,9.82,0,0,1-1.34.6A4,4,0,0,1,66.94,6c-.26,0-.89.13-1,.33.1,0,.22-.16.33-.11a1.67,1.67,0,0,1-1.2.59c0-.77-1.38,0-1.83-.6-.88.41-1.83.14-2.89.33.46.54-.31.06-.16.66-.25.07-.34.08-.37,0L59,6.93c-.21-.15.21-.16.17-.3-.55,0-.26-.22-.65-.33.11.2-.14.34-.47.3l.48.21c-.71.43-.73-.41-1.45,0l.21-.22c-.37.17-1.46.19-1.76.75-.08-.06-.2-.21,0-.28-1,.09-2,.88-2.78.72l0-.16c-.17.07-.26.33-.5.22,0-.07,0-.16,0-.16s-.42.34-.67.3l.17-.2c-1,0-1.33.65-2.07.89-.08-.43-.83-.45-1.2-.45V8.16a11,11,0,0,0-2.66,1.13c-.71-.33-2.1.27-3.14.22.17.05.06.34-.1.42s-.56.44-.62,0H42c-.26-.35-.71-.14-1.08-.07l.06.53c-1.13-.5-2.41.95-3.1.42-.2.19-.48.26-.67.45L37.18,11a7.22,7.22,0,0,0-1.74.43l.1-.24c-.45.11-.33.94-.74,1.07l-.24-.37c-.77.2-1.65.09-2.29.71a.2.2,0,0,1,.1-.24c-.36.1-1.48.18-1.17.69-.12-.36-.8.22-1.15.52l0-.29c-.23.45-.21.55-.66.8-.13,0-.17-.18,0-.16-.43,0-.21.35-.72.36l.11-.23c-.4.11-.33.19-.48.46a.75.75,0,0,1-.91,0,.45.45,0,0,1-.4.43c-.07-.08,0-.16,0-.2-.72,0-.86.65-1.39.56a.2.2,0,0,0-.14-.12,6.67,6.67,0,0,1,.9-.31c-.08-.24-.51-.12-.3-.58-.27.31-.69.93-1.14,1a.21.21,0,0,1-.08-.06l0,0a.36.36,0,0,0-.24.13,1.8,1.8,0,0,0-.36.06c-.13-.18-.52.08-.73.15.12.26-.17.32.17.44,0,0,0-.05.16-.11l.08-.06v0l.51-.22c-.12.2-.24.37-.53.32,0,.21-.09.43-.12.53-.42-.25-1-.24-1.21-.43-.57.39-1.44.68-1.64,1.32-.15.14-.26-.06-.36-.11.08-.09.21-.13.24-.22-.31.27-1,.47-1,.84-.52,0,.12-.41-.48-.11l0-.14c-1.43,0-1.55,1.75-3.17,1.67.11,0,.16,0,.21.05-1.63.41-3,1.66-4.64,2-.46.12-.39.36-.56.65L11,21.68l-.26.54c-.48.55-1.39-.08-1.92.76L9,23.1c-.29.12-.81.58-.87.35,0,.05,0,.23-.15.2l-.09-.14-.53.61c-.58.18-.23-.59-1-.21-.26.21-.58.84-.42.87s.35-.07.43.06l-.21.21c.19.43.23.95,1,.89l.3-.48.25.11-.36.22c.31.07.35-.17.44-.36a.4.4,0,0,0,.3.12l.21-.62c.14.13,0,.42.32.35.1-.29-.39-.25-.12-.55.31.07.33.25.49,0A.19.19,0,0,1,9,25c.14-.24.54-.37.54-.64.34.11.7-.47.89-.07a1.36,1.36,0,0,1,.41-.64c-.12.67.76-.38.93.18,0-.57.88-.72,1.24-1.22,0,.05,0,.15-.08.15a1.33,1.33,0,0,1,.65,0c-.14-.37.25-.65.38-1,.51.18,0,.51.26.79-.16-.28.45-.56.22-.74.37.08.28,0,.55.22-.16-.46.21-.19.3-.56.48.05.29.37.64.05C16.23,21.52,15.94,21.85,15.94,21.85Zm9.69-5h0l-.2.1Zm.86-.34-.38.13c-.06-.07-.06-.18,0-.21S26.33,16.45,26.49,16.48ZM24,15.37c.13-.09.19-.06.23,0l-.23.12v0A.38.38,0,0,1,24,15.37Z"/><path class="cls-1" d="M23.87,15.81l-.05,0,.1,0,0-.1Z"/><path class="cls-1" d="M106.63,4.72h0l0,0Z"/><polygon class="cls-1" points="38.74 13.24 38.72 13.17 38.66 13.25 38.74 13.24"/><path class="cls-1" d="M111.71,5.7a.17.17,0,0,0,.07.08S111.75,5.73,111.71,5.7Z"/><path class="cls-1" d="M113.91,5.79l.31.1A1.76,1.76,0,0,0,113.91,5.79Z"/><path class="cls-1" d="M115.6,6a1,1,0,0,0,0-.12h0Z"/><path class="cls-1" d="M88.78,6.47l-.07,0C88.56,6.55,88.67,6.52,88.78,6.47Z"/><path class="cls-1" d="M96.74,5.62a1.57,1.57,0,0,1-.25.14C96.63,5.78,96.74,5.78,96.74,5.62Z"/><polygon class="cls-1" points="79.91 7.22 79.91 7.21 79.85 7.21 79.91 7.22"/><path class="cls-1" d="M96.11,5.76a.55.55,0,0,0,.38,0A.7.7,0,0,0,96.11,5.76Z"/><path class="cls-1" d="M122.91,6.18H123s0,0,0,0Z"/><path class="cls-1" d="M123,6.15l.09,0S123,6.11,123,6.15Z"/><path class="cls-1" d="M123.29,6.05l-.19.06A.17.17,0,0,0,123.29,6.05Z"/><path class="cls-1" d="M120.68,6l0,.1A.13.13,0,0,0,120.68,6Z"/><path class="cls-1" d="M120,6c.16,0,.4.22.63.16l0-.08C120.54,6.26,120.16,5.86,120,6Z"/><path class="cls-1" d="M117.18,4.73l.57.09c-.1-.11-.23-.26,0-.28C117.07,4.2,117.93,4.78,117.18,4.73Z"/><path class="cls-1" d="M115.42,4.55c.3,0,0-.15,0-.22C115.24,4.43,115.19,4.46,115.42,4.55Z"/><path class="cls-1" d="M102.64,4.49l0-.25C102.44,4.27,102.67,4.33,102.64,4.49Z"/><polygon class="cls-1" points="100.21 5.83 100.44 5.99 100.55 5.76 100.21 5.83"/><polygon class="cls-1" points="98.75 4.03 98.85 3.99 98.46 4.09 98.75 4.03"/><path class="cls-1" d="M77.27,4.92l.1.3C77.52,5.16,77.53,4.8,77.27,4.92Z"/><path class="cls-1" d="M68.05,6a.35.35,0,0,0-.53,0C67.73,6,68,6.08,68.05,6Z"/><polygon class="cls-1" points="40.48 10.15 40.63 10 40.31 10.18 40.48 10.15"/></svg>
