<svg id="Layer_1" data-name="Layer 1" xmlns="http://www.w3.org/2000/svg" viewBox="0 0 328 211"><defs><style>.cls-1{font-size:87.71px;fill:#525252;font-family:AvenirNext-Regular, Avenir Next;}.cls-2{letter-spacing:-0.02em;}.cls-3{letter-spacing:-0.01em;}.cls-4{letter-spacing:-0.06em;}.cls-5{letter-spacing:-0.02em;}.cls-6{fill:#5c5c5c;}</style></defs><title>underskriftt</title><text class="cls-1" transform="translate(-41.14 -53.98)">FION<tspan class="cls-2" x="213.67" y="0">A</tspan><tspan class="cls-3" x="273.49" y="0"> </tspan><tspan x="294.36" y="0">WR</tspan><tspan class="cls-4" x="432.16" y="0">A</tspan><tspan class="cls-5" x="488.29" y="0">Y</tspan></text><path class="cls-6" d="M41.89,87.36c19.83,8.8,42.17-.57,54.93-16.81S119.35,29.5,110,9.49a1.51,1.51,0,0,0-2.59,0C75.82,63.54,73.53,131.24,32.25,180.12l2.5,1.46a253.19,253.19,0,0,1,8.4-31.31c3.37-9.94,7-20.76,14.71-28.25C70,110.26,88.81,109.25,101,97.35l-2.12-2.12a92.75,92.75,0,0,0-18.58,29.48,1.51,1.51,0,0,0,1.45,1.9c16-.09,33-11.72,33.22-28.92a1.51,1.51,0,0,0-2.8-.75,50.9,50.9,0,0,0-6.51,33.56,1.51,1.51,0,0,0,2.51.66c7.92-8.3,11-19.68,7.34-30.68l-1.45,1.9,8.78-.94-1.5-1.5a88.68,88.68,0,0,1-2.13,24.2l2.89.8c1.78-11,9.23-19.48,19.1-24.33l-2.26-1.29a56.49,56.49,0,0,1-3.76,26.23,1.52,1.52,0,0,0,2.21,1.7,83.08,83.08,0,0,0,20.87-22.2l-2.59-1.51a49.13,49.13,0,0,0-4.36,19.82,1.51,1.51,0,0,0,2.26,1.3c4.9-3.58,7.9-8.19,8.49-14.28l-2.95.4a20.66,20.66,0,0,0,9.42,11.39,1.52,1.52,0,0,0,2.2-.9,62.59,62.59,0,0,0,2.53-21.81c-.09-1.58-2.63-2.16-2.94-.4-1.09,6-2.1,12.86,1.94,18.07,3.4,4.37,9.56,6.56,14.74,4.16,6.33-2.94,10.1-11.51,12.68-17.51a63.71,63.71,0,0,0,5.27-22.23c1.44-35.3-51.72-16-67.62-7.13a1.5,1.5,0,0,0,1.51,2.6,107.4,107.4,0,0,1,32.81-11.94c9-1.68,23.57-2.66,28.68,6.93,2.86,5.36,1.64,12.63.47,18.27A64.58,64.58,0,0,1,194.83,107c-3,5.66-7.64,14.5-15.39,11.78-8.24-2.9-7.49-12-6.25-18.93l-2.95-.4a59.94,59.94,0,0,1-2.42,21l2.2-.89a17.42,17.42,0,0,1-8-9.6,1.5,1.5,0,0,0-2.94.4,16.08,16.08,0,0,1-7,11.69l2.26,1.29a45.49,45.49,0,0,1,4-18.31,1.5,1.5,0,0,0-2.59-1.51,79.17,79.17,0,0,1-19.8,21.12l2.21,1.69a58.57,58.57,0,0,0,3.86-27,1.53,1.53,0,0,0-2.26-1.3c-10.47,5.15-18.58,14.4-20.47,26.12-.31,1.86,2.45,2.71,2.89.8a91.4,91.4,0,0,0,2.24-25,1.51,1.51,0,0,0-1.5-1.5l-8.78.94a1.52,1.52,0,0,0-1.44,1.9c3.36,10,.63,20.2-6.57,27.76l2.5.66a47.62,47.62,0,0,1,6.22-31.25l-2.8-.76c-.18,15.56-15.85,25.84-30.22,25.92l1.44,1.9A88.77,88.77,0,0,1,101,97.35a1.5,1.5,0,0,0-2.12-2.12c-12.9,12.61-33.44,13.16-45.41,27.1-6,7-9.26,15.92-12.28,24.5a252.58,252.58,0,0,0-9.31,33.95c-.27,1.34,1.46,2.7,2.51,1.46C75.91,133.06,78.25,65.34,110,11h-2.59c8.66,18.54-.73,41.73-12.35,56.94S62.21,93.11,43.41,84.77c-1.75-.77-3.28,1.81-1.52,2.59Z"/><path class="cls-6" d="M202.82,109.77l12.42-12-2.51-1.46a129.32,129.32,0,0,1-10.58,20l2.74,1.16a22.29,22.29,0,0,1,7.51-13c3.51-3,7.63-5,11.71-1.73a17.24,17.24,0,0,0,3.64,2.73c3.11,1.35,10.52-.79,7.44-5.17a1.54,1.54,0,0,0-1.69-.68,17.6,17.6,0,0,0-11.7,9.78c-1.48,3.48-2.14,9.51,1.09,12.35,3.9,3.41,9.73-1,12.36-4a16.11,16.11,0,0,0,3.69-14.67l-2.74,1.16c3.91,5.08,3.2,17.27,12.83,15.83,9.8-1.46,5.79-13.5,7.6-19.66.54-1.86-2.35-2.64-2.9-.8-2.15,7.24-2.08,18.23,8.14,18.25,11.42,0,13.51-11.75,12.84-20.63l-2.79.75c7.58,17.14,9.79,35.93,8.2,54.51-1.36,15.93-5.51,34.07-21.28,41.66-7.16,3.45-16.06,4.63-23.47,1.29-8-3.6-12-11.84-13.77-20-2.11-9.73.27-18.24,8.11-24.58,6.91-5.58,15.24-9.86,23.17-13.78a207.77,207.77,0,0,1,58.52-18.53c1.9-.31,1.09-3.21-.8-2.9a209.86,209.86,0,0,0-61.57,20c-8.6,4.39-18.34,9.19-25,16.35-5.84,6.27-7.08,14.45-5.62,22.67,3,16.74,15.37,28.45,32.94,25.1,17.81-3.4,27.24-18.92,30.29-35.66,4.13-22.61,2.22-46.56-7.12-67.65-.6-1.36-2.91-.68-2.8.76.5,6.73.34,15.32-7.7,17.34-9.54,2.41-9.13-8.3-7.38-14.16l-2.9-.8c-1.28,4.37,1.88,19.4-6.93,17.43-5.43-1.21-5.08-10.51-8-14.32a1.51,1.51,0,0,0-2.74,1.16,13,13,0,0,1-1.87,10.4c-1.88,2.85-7.5,8.11-10.06,3.66-1.54-2.68,0-6.92,1.45-9.29a14.76,14.76,0,0,1,8.72-6.15l-1.69-.69-2.22,1.23-3.14-1.56c-.73-.48-1.31-1.19-2-1.71a10.73,10.73,0,0,0-2.86-1.69c-3.05-1-6.06.15-8.66,1.75A25.35,25.35,0,0,0,202,116.73a1.51,1.51,0,0,0,2.74,1.16,133.42,133.42,0,0,0,10.88-20.74c.61-1.46-1.52-2.41-2.51-1.46l-12.42,12c-1.39,1.34.73,3.46,2.13,2.12Z"/></svg>
