<?xml version="1.0" standalone="no"?>
<!DOCTYPE svg PUBLIC "-//W3C//DTD SVG 20010904//EN"
 "http://www.w3.org/TR/2001/REC-SVG-20010904/DTD/svg10.dtd">
<svg version="1.0" xmlns="http://www.w3.org/2000/svg"
 width="632.000000pt" height="632.000000pt" viewBox="0 0 632.000000 632.000000"
 preserveAspectRatio="xMidYMid meet">
<metadata>
Created by potrace 1.11, written by Peter Selinger 2001-2013
</metadata>
<g transform="translate(0.000000,632.000000) scale(0.100000,-0.100000)"
fill="#000000" stroke="none">
<path d="M3049 5376 c-2 -2 -35 -6 -74 -10 -38 -3 -79 -7 -90 -9 -11 -3 -41
-7 -66 -11 -246 -36 -587 -157 -819 -292 -48 -28 -179 -113 -195 -126 -5 -5
-36 -28 -67 -52 -164 -125 -355 -327 -481 -508 -26 -38 -47 -71 -47 -75 0 -3
-6 -14 -14 -22 -7 -9 -29 -45 -47 -81 -19 -36 -37 -66 -41 -68 -5 -2 -8 -9 -8
-16 0 -7 -11 -34 -24 -59 -14 -25 -32 -65 -40 -89 -8 -24 -24 -68 -36 -98 -27
-71 -63 -202 -75 -275 -3 -16 -8 -38 -11 -48 -3 -10 -8 -35 -10 -55 -2 -20 -7
-62 -11 -92 -3 -30 -7 -88 -7 -127 -1 -40 -5 -73 -9 -73 -5 0 -5 -4 -2 -10 3
-5 8 -61 11 -122 2 -62 6 -124 8 -138 2 -14 7 -50 10 -80 4 -30 9 -63 12 -72
3 -9 6 -25 8 -35 21 -105 77 -291 111 -368 49 -112 143 -298 168 -330 27 -36
78 -112 84 -125 4 -8 9 -17 12 -20 3 -3 33 -39 65 -80 88 -112 271 -288 403
-387 65 -48 127 -93 138 -99 39 -20 70 -39 85 -51 24 -19 192 -103 205 -103 7
0 18 -7 25 -15 6 -8 15 -14 18 -13 4 1 25 -6 46 -15 64 -28 265 -95 336 -112
100 -24 103 -25 135 -30 17 -3 44 -8 60 -12 17 -3 41 -7 55 -8 14 -2 59 -7
100 -11 41 -5 161 -9 265 -9 168 1 243 5 350 21 17 3 44 7 60 9 25 4 87 18
220 50 79 19 247 77 325 112 184 83 408 209 418 235 2 4 8 8 12 8 13 0 120 81
120 91 0 5 4 9 10 9 15 0 52 33 180 160 127 126 184 196 292 359 55 82 147
253 176 326 42 106 64 163 66 176 1 8 4 19 8 24 6 10 57 211 64 255 3 14 7 36
9 50 26 136 26 531 0 660 -10 50 -15 76 -19 100 -3 14 -14 61 -27 105 -12 44
-22 88 -22 98 -1 9 -5 17 -9 17 -4 0 -7 3 -6 8 0 4 -2 16 -6 27 -5 11 -20 52
-34 90 -34 92 -115 253 -169 338 -24 37 -43 71 -43 76 0 5 -3 11 -7 13 -5 2
-34 39 -67 82 -82 110 -88 118 -206 236 -102 104 -262 238 -327 276 -18 10
-33 22 -33 26 0 4 -4 8 -10 8 -5 0 -36 17 -68 38 -116 75 -463 232 -512 232
-9 0 -21 5 -28 12 -7 7 -12 9 -12 5 0 -4 -8 -3 -18 2 -11 6 -30 12 -43 14 -13
3 -44 10 -69 17 -25 7 -56 14 -70 16 -14 3 -38 7 -55 11 -16 3 -39 7 -50 9
-68 8 -123 17 -140 21 -23 5 -441 13 -446 9z"/>
</g>
</svg>
